# xmcd
#
# Track frame offsets:
#	150
#	51900
#	73757
#	101105
#	123350
#	138765
#	161692
#	183650
#	203155
#	223805
#	241705
#	260760
#	280395
#	307042
#
# Disc length: 4344 seconds
#
# Revision: 1
# Processed by: cddbd v1.5.2PL0 Copyright (c) Steve Scherf et al.
# Submitted via: audiograbber 1.83.01
#
DISCID=dd10f60e
DTITLE=SPECIAL DREAMS - VOLUME 7
DYEAR=1900
DGENRE=R&B
TTITLE0=FLOATERS - MAGIC WE THANK YOU
TTITLE1=CURTIS MAYFIELD - YOU MEAN EVERITHING TO ME
TTITLE2=BLUE M - JUST DON'T WANT TO BE ONLY
TTITLE3=J. BLACK FOOT - TAXI
TTITLE4=PETE WINGFIELD - EIGHTEEN WITH A BULLET
TTITLE5=SUGAR FOOT - IM SUGAR
TTITLE6=DAVE VALENTINI - IN LOVES TIME
TTITLE7=BILL WINTERS - SAMETHING TURNS YOU ON
TTITLE8=ONE QAY - SAY WILL
TTITLE9=SIDE EFFECT - ATTITUDES
TTITLE10=MARK DEE - JUST GIVE ME ROMANCE
TTITLE11=H.D. AND THE BOYS - DONT YOU KNOW
TTITLE12=MICHEL COOPER - OVER AND OVER
TTITLE13=MICHEL COOPER - SHOOP SHOOP NEVERSTOP GIVIN YOU LOVE
EXTD=
EXTT0=
EXTT1=
EXTT2=
EXTT3=
EXTT4=
EXTT5=
EXTT6=
EXTT7=
EXTT8=
EXTT9=
EXTT10=
EXTT11=
EXTT12=
EXTT13=
PLAYORDER=
